#!OML:ASF E:\basketball\basketball\Project 1\Capture day 1\Session 1\Subject.ASF
:FULLY-SPECIFIED
:DEGREES
34
root -34.7866 14.8219 13.8005 178.452 74.06 163.895
lowerback 8.36476 -2.51982 0.705998
upperback 5.24811 -3.05704 1.45911
thorax 0.788166 -1.43569 1.33704
lowerneck -18.5247 -17.3977 -36.8558
upperneck -8.4941 -19.0602 51.5024
head 14.3077 -8.23413 28.2615
rclavicle 1.11319e-014 -2.8625e-014
rhumerus -24.2245 25.7121 -91.6438
rradius 114.241
rwrist 4.7695
rhand -28.2214 41.332
rfingers 7.12502
rthumb -1.5997 11.3583
lclavicle 1.11319e-014 -2.8625e-014
lhumerus -20.0442 -5.06282 97.018
lradius 83.3244
lwrist 180.529
lhand -8.12155 75.9763
lfingers 7.12502
lthumb 17.7919 254.818
rfemur -17.924 -18.0228 6.24569
rtibia 51.228
rfoot -37.9906 -9.80507
rtoes -11.4639
lfemur -35.5678 13.386 -26.9343
ltibia 67.4599
lfoot -18.6559 -12.0487
ltoes 5.717
35
root -34.7468 14.783 13.723 179.096 74.1793 164.275
lowerback 9.13193 -2.52762 1.1379
upperback 5.37433 -2.99599 1.72201
thorax 0.49018 -1.38919 1.39331
lowerneck -19.1966 -17.3278 -37.0158
upperneck -8.16185 -18.7093 51.3719
head 14.3546 -8.00034 28.5315
rclavicle 3.45885e-014 -3.18055e-014
rhumerus -22.2711 27.3945 -90.2408
rradius 114.451
rwrist 7.11181
rhand -27.3173 39.8355
rfingers 7.12502
rthumb -0.726572 9.85697
lclavicle 3.45885e-014 -3.18055e-014
lhumerus -20.6692 -4.23196 96.8833
lradius 84.1119
lwrist 178.477
lhand -5.45713 76.0668
lfingers 7.12502
lthumb 20.3541 254.98
rfemur -17.989 -18.5538 5.97194
rtibia 51.3103
rfoot -37.7053 -9.3221
rtoes -12.6006
lfemur -36.7963 14.0911 -27.1169
ltibia 69.2197
lfoot -17.9774 -11.8724
ltoes 5.70583
36
root -34.6975 14.7544 13.6395 179.214 74.3677 164.23
lowerback 9.87507 -2.53002 1.29599
upperback 5.62439 -2.93484 2.06925
thorax 0.3549 -1.34651 1.68513
lowerneck -19.9489 -17.2145 -37.1864
upperneck -7.73694 -18.2463 51.1439
head 14.3275 -7.6896 28.749
rclavicle -4.41302e-014 -1.19271e-014
rhumerus -19.8819 29.6246 -88.4975
rradius 114.503
rwrist 8.80799
rhand -26.7946 38.0874
rfingers 7.12502
rthumb -0.221665 8.10779
lclavicle -4.41302e-014 -1.19271e-014
lhumerus -20.9797 -2.35553 96.4234
lradius 83.7746
lwrist 181.019
lhand -11.3277 82.5838
lfingers 7.12502
lthumb 14.7048 247.958
rfemur -17.8866 -19.1512 5.50141
rtibia 51.3093
rfoot -37.5626 -8.55476
rtoes -13.6969
lfemur -37.9153 15.006 -27.4632
ltibia 70.9638
lfoot -18.1835 -10.7579
ltoes 1.78016
37
root -34.6392 14.7282 13.5496 179.154 74.61 164.123
lowerback 10.7454 -2.52175 1.45662
upperback 5.89861 -2.84655 2.39367
thorax 0.175522 -1.28781 1.95446
lowerneck -20.6729 -17.1246 -37.2741
upperneck -7.27531 -17.8632 50.9063
head 14.3274 -7.41601 28.8626
rclavicle 2.38542e-014 3.10104e-014
rhumerus -17.1445 31.9467 -86.4654
rradius 114.417
rwrist 10.1772
rhand -25.9541 36.1006
rfingers 7.12502
rthumb 0.590066 6.12166
lclavicle 2.38542e-014 3.10104e-014
lhumerus -21.6147 -0.838581 96.0998
lradius 83.8024
lwrist 181.412
lhand -13.3609 87.7484
lfingers 7.12502
lthumb 12.7453 242.661
rfemur -17.5482 -19.7613 4.93365
rtibia 51.1669
rfoot -37.5515 -7.73996
rtoes -15.1836
lfemur -38.929 16.0843 -27.7966
ltibia 72.5285
lfoot -18.54 -9.58573
ltoes 0.0561026
38
root -34.5761 14.7042 13.4595 179.326 74.9935 164.335
lowerback 11.8443 -2.41184 1.84811
upperback 6.1331 -2.58993 2.53177
thorax -0.190691 -1.13735 1.89152
lowerneck -21.3278 -17.0963 -37.0184
upperneck -6.83199 -17.7036 50.7263
head 14.4004 -7.24189 28.7438
rclavicle 1.59028e-014 -7.15625e-015
rhumerus -14.4152 33.9902 -84.5075
rradius 114.338
rwrist 11.3744
rhand -24.7632 33.6526
rfingers 7.12502
rthumb 1.74027 3.67991
lclavicle 1.59028e-014 -7.15625e-015
lhumerus -22.5923 0.106326 95.6024
lradius 83.8722
lwrist 180.889
lhand -13.6155 87.7677
lfingers 7.12502
lthumb 12.4999 242.626
rfemur -17.115 -19.9637 4.51037
rtibia 50.899
rfoot -37.4412 -7.39021
rtoes -16.8669
lfemur -39.9145 17.3316 -27.9938
ltibia 73.953
lfoot -18.7157 -8.22657
ltoes 0.269055
39
root -34.5123 14.6769 13.3714 179.772 75.5173 164.853
lowerback 12.4016 -2.22596 2.38395
upperback 6.86645 -2.22325 2.5424
thorax 0.250603 -0.912181 1.56689
lowerneck -22.0655 -17.236 -36.5941
upperneck -6.94877 -17.6562 50.7698
head 14.3935 -7.08858 28.538
rclavicle -3.18055e-015 1.66979e-014
rhumerus -10.4572 35.691 -81.8625
rradius 113.842
rwrist 11.8635
rhand -23.5357 32.5834
rfingers 7.12502
rthumb 2.92574 2.62377
lclavicle -3.18055e-015 1.66979e-014
lhumerus -22.8965 0.493815 94.9177
lradius 83.6684
lwrist 180.026
lhand -13.0435 82.9053
lfingers 7.12502
lthumb 13.0513 247.523
rfemur -16.7158 -19.824 4.23869
rtibia 50.5864
rfoot -37.3731 -7.06809
rtoes -17.8767
lfemur -40.9187 18.5888 -28.048
ltibia 75.3011
lfoot -18.8504 -6.54803
ltoes 1.11844
40
root -34.4473 14.64 13.2834 180.35 76.034 165.49
lowerback 13.6882 -2.08454 2.70852
upperback 6.97772 -1.90434 2.73527
thorax -0.327156 -0.735828 1.58504
lowerneck -22.4412 -17.0905 -36.3901
upperneck -6.49452 -17.4059 50.5413
head 14.3554 -6.90268 28.4428
rclavicle 8.74653e-015 3.18055e-015
rhumerus -7.27413 37.8559 -79.2004
rradius 113.137
rwrist 12.7474
rhand -22.7401 31.2247
rfingers 7.12502
rthumb 3.69404 1.27701
lclavicle 8.74653e-015 3.18055e-015
lhumerus -24.5375 1.51038 94.2977
lradius 83.3351
lwrist 181.601
lhand -16.7829 74.9999
lfingers 7.12502
lthumb 9.44484 255.232
rfemur -16.3398 -19.9169 3.93563
rtibia 50.2851
rfoot -37.3423 -6.5956
rtoes -18.7818
lfemur -41.947 19.675 -28.0213
ltibia 76.5522
lfoot -19.0536 -4.95716
ltoes 2.6156
